<?xml version="1.0" encoding="UTF-8" standalone="no"?>
<svg
   xmlns:dc="http://purl.org/dc/elements/1.1/"
   xmlns:cc="http://creativecommons.org/ns#"
   xmlns:rdf="http://www.w3.org/1999/02/22-rdf-syntax-ns#"
   xmlns:svg="http://www.w3.org/2000/svg"
   xmlns="http://www.w3.org/2000/svg"
   xmlns:xlink="http://www.w3.org/1999/xlink"
   xmlns:sodipodi="http://sodipodi.sourceforge.net/DTD/sodipodi-0.dtd"
   xmlns:inkscape="http://www.inkscape.org/namespaces/inkscape"
   version="1.1"
   preserveAspectRatio="xMidYMid meet"
   viewBox="0 0 128 128"
   width="128"
   height="128"
   id="svg2"
   inkscape:version="0.91 r13725"
   sodipodi:docname="LED_BLUEbig.svg">
  <metadata
     id="metadata27">
    <rdf:RDF>
      <cc:Work
         rdf:about="">
        <dc:format>image/svg+xml</dc:format>
        <dc:type
           rdf:resource="http://purl.org/dc/dcmitype/StillImage" />
        <dc:title></dc:title>
      </cc:Work>
    </rdf:RDF>
  </metadata>
  <sodipodi:namedview
     pagecolor="#ffffff"
     bordercolor="#666666"
     borderopacity="1"
     objecttolerance="10"
     gridtolerance="10"
     guidetolerance="10"
     inkscape:pageopacity="0"
     inkscape:pageshadow="2"
     inkscape:window-width="1668"
     inkscape:window-height="888"
     id="namedview25"
     showgrid="false"
     inkscape:zoom="3.6875"
     inkscape:cx="32"
     inkscape:cy="50.068977"
     inkscape:window-x="77"
     inkscape:window-y="24"
     inkscape:window-maximized="0"
     inkscape:current-layer="svg2" />
  <defs
     id="defs4">
    <path
       d="m 47.08,31.52 c 0,9.79 -6.36,17.75 -14.19,17.75 -7.83,0 -14.19,-7.96 -14.19,-17.75 0,-9.8 6.36,-17.75 14.19,-17.75 7.83,0 14.19,7.95 14.19,17.75 z"
       id="g0"
       inkscape:connector-curvature="0" />
    <path
       d="m 18.7,31.52 28.38,0 0,17.75 -28.38,0 0,-17.75 z"
       id="g1"
       inkscape:connector-curvature="0" />
    <path
       d="m 50.45,43.14 c 1.11,0 2,0.9 2,2 0,0.83 0,1.3 0,2.13 0,1.1 -0.89,2 -2,2 -7.42,0 -27.7,0 -35.12,0 -1.11,0 -2,-0.9 -2,-2 0,-0.83 0,-1.3 0,-2.13 0,-1.1 0.89,-2 2,-2 7.42,0 27.7,0 35.12,0 z"
       id="g2"
       inkscape:connector-curvature="0" />
  </defs>
  <g
     id="g9"
     transform="matrix(3.1281758,0,0,3.2229649,-38.131295,-37.661074)">
    <g
       id="g11">
      <g
         id="g13">
        <use
           xlink:href="#g0"
           id="use15"
           style="opacity:1;fill:#ff0000;fill-opacity:1"
           x="0"
           y="0"
           width="100%"
           height="100%" />
      </g>
      <g
         id="g17">
        <use
           xlink:href="#g1"
           id="use19"
           style="opacity:1;fill:#ff0000;fill-opacity:1"
           x="0"
           y="0"
           width="100%"
           height="100%" />
      </g>
      <g
         id="g21">
        <use
           xlink:href="#g2"
           id="use23"
           style="opacity:1;fill:#ff0000;fill-opacity:1"
           x="0"
           y="0"
           width="100%"
           height="100%" />
      </g>
    </g>
  </g>
</svg>
